<?xml version="1.0" encoding="utf-8"?>
<!-- Generator: Adobe Illustrator 12.0.0, SVG Export Plug-In . SVG Version: 6.00 Build 51448)  -->
<!DOCTYPE svg PUBLIC "-//W3C//DTD SVG 1.1//EN" "http://www.w3.org/Graphics/SVG/1.1/DTD/svg11.dtd" [
	<!ENTITY ns_svg "http://www.w3.org/2000/svg">
	<!ENTITY ns_xlink "http://www.w3.org/1999/xlink">
]>
<svg  version="1.1" id="レイヤー_1" xmlns="&ns_svg;" xmlns:xlink="&ns_xlink;" width="615.625" height="499.48"
	 viewBox="0 0 615.625 499.48" overflow="visible" enable-background="new 0 0 615.625 499.48" xml:space="preserve">
<g>
	<g>
		<g>
			<path fill="#FFFFFF" d="M3.519,491.361v-94.979c0-3.965,2.003-6.043,5.827-6.043h16.024c3.824,0,5.827,1.889,5.827,5.477v11.328
				c7.648-10.008,19.849-18.883,36.237-18.883c22.58,0,38.24,17.184,38.24,45.885v57.215c0,3.965-2.003,6.043-5.827,6.043H83.823
				c-3.642,0-5.827-2.078-5.827-6.043V438.49c0-15.674-8.922-24.359-22.033-24.359c-14.204,0-24.765,10.197-24.765,24.547v52.684
				c0,3.965-2.003,6.043-5.827,6.043H9.346C5.522,497.404,3.519,495.326,3.519,491.361z"/>
			<path fill="#FFFFFF" d="M116.511,443.777c0-30.59,22.944-55.516,55.175-55.516c32.231,0,55.175,24.926,55.175,55.516
				s-22.944,55.703-55.175,55.703C139.456,499.48,116.511,474.367,116.511,443.777z M144.372,443.777
				c0,16.805,10.379,30.023,27.314,30.023c17.117,0,27.314-13.219,27.314-30.023c0-16.994-10.198-29.834-27.314-29.834
				C154.751,413.943,144.372,426.783,144.372,443.777z"/>
			<path fill="#FFFFFF" d="M283.76,388.261c16.752,0,27.496,6.043,34.416,15.107v-46.262c0-3.965,2.003-6.232,6.01-6.232h15.478
				c3.824,0,6.009,2.268,6.009,6.232v134.064c0,3.967-2.185,6.232-6.009,6.232h-15.478c-4.007,0-6.01-2.078-6.01-5.664v-7.555
				c-6.92,9.254-17.663,15.295-34.416,15.295c-26.95,0-46.07-22.281-46.07-55.703S256.81,388.261,283.76,388.261z M292.682,473.421
				c16.753,0,25.857-12.84,25.857-29.455c0-16.994-9.104-29.646-25.857-29.646c-16.752,0-26.95,12.652-26.95,29.646
				C265.732,460.582,275.93,473.421,292.682,473.421z"/>
			<path fill="#FFFFFF" d="M380.817,379.199c-8.923,0-16.024-7.176-16.024-15.861c0-8.309,7.283-15.484,16.024-15.484
				c8.558,0,15.66,6.799,15.66,15.484S389.557,379.199,380.817,379.199z M366.795,491.361v-94.979c0-3.965,2.003-6.043,5.827-6.043
				h16.024c3.823,0,5.826,2.078,5.826,6.043v94.979c0,3.965-2.003,6.043-5.826,6.043h-16.024
				C368.798,497.404,366.795,495.326,366.795,491.361z"/>
			<path fill="#FFFFFF" d="M464.215,388.261c20.94,0,36.783,10.574,44.795,24.736c2.003,3.4,0.546,6.232-2.913,7.932l-13.293,5.664
				c-3.096,1.699-5.281,0.945-6.92-1.133c-4.734-6.607-11.654-11.33-21.487-11.33c-15.842,0-27.132,12.842-27.132,30.023
				c0,17.184,11.29,29.457,27.132,29.457c10.016,0,16.935-4.531,21.852-10.574c2.185-2.643,3.824-3.02,7.102-1.51l13.293,5.666
				c3.46,1.508,4.734,4.529,2.731,8.119c-8.013,14.35-23.49,24.168-44.978,24.168c-30.773,0-54.811-23.037-54.811-55.326
				C409.586,412.998,433.805,388.261,464.215,388.261z"/>
			<path fill="#FFFFFF" d="M588.857,492.117l-0.182-6.986c-6.191,9.063-17.663,14.162-31.685,14.162
				c-22.762,0-39.15-11.52-39.15-33.424c0-22.848,21.487-34.365,42.246-34.365c9.287,0,18.392,1.322,27.86,4.154
				c0.364-16.24-8.194-23.227-23.126-23.227c-10.015,0-20.94,2.455-29.135,5.477c-3.643,1.322-6.374,0.189-7.648-3.777l-2.913-9.252
				c-1.093-3.588,0-6.609,3.46-8.119c11.107-4.721,24.946-8.498,40.242-8.498c32.413,0,46.799,16.43,46.799,49.096v53.814
				c0,3.967-2.186,6.232-6.01,6.232h-14.749C591.042,497.404,588.857,495.515,588.857,492.117z M587.947,459.826v-7.174
				c-6.556-2.455-13.475-3.588-20.759-3.588c-11.836,0-21.669,4.721-21.669,14.729c0,10.197,8.74,14.918,19.302,14.918
				C577.021,478.71,587.947,472.478,587.947,459.826z"/>
		</g>
		<g>
			<path fill="#FFFFFF" stroke="#FFFFFF" d="M251.511,16.539c21.163,25.213,95.585,122.208,126.599,162.739
				c2.206,2.883,4.192,5.481,5.925,7.747c1.427,1.866,2.681,3.507,3.743,4.897c2.066,2.705,4.455,5.286,7.075,7.739
				c2.72,2.545,5.69,4.953,8.812,7.214c2.042,1.48,4.148,2.898,6.292,4.253c6.808,4.302,13.981,7.959,20.62,10.914
				c1.246,0.554,4.887,2.569,6.26,1.196c-15.27-15.589-30.787-30.428-42.877-48.734c-2.072-3.14-4.529-6.869-6.957-10.788
				c-0.477-0.768-0.951-1.542-1.422-2.321c-4.205-6.964-8.08-14.268-9.42-19.76c-2.973-12.183-4.457-29.713-4.457-29.713V0.5h82.604
				c0,0,0,196.951,0,232.761c0,3.581,0,5.55,0,5.55c-0.471,24.702-21.471,44.702-45.471,49.702c-12,3-25,2-35.824-2.621
				c-2.586-1.164-4.801-2.49-6.707-3.844c-1.906-1.355-3.502-2.74-4.844-4.025c-5.035-4.818-20.842-24.595-24.084-28.947
				c-4.256-5.711-8.629-11.32-12.979-16.958c-5.051-6.546-9.986-13.179-15.054-19.712c-5.437-7.008-10.757-14.104-16.165-21.134
				c-5.419-7.045-10.837-14.089-16.224-21.159c-4.985-6.543-10.044-13.029-15.025-19.575c-4.15-5.453-8.338-10.876-12.508-16.313
				c-2.955-3.853-5.876-7.729-8.849-11.568c-1.385-1.789-2.722-3.618-4.119-5.397c-0.094-0.12-0.19-0.237-0.286-0.354V283.57
				l-71.333-1.332c0,0,0-235.469,0-235.566c0-6.078,1.791-12.651,4.568-18.653c0.84-1.815,1.77-3.579,2.768-5.26
				c1.301-2.192,2.737-4.313,4.364-6.266c3.405-4.086,7.824-7.222,12.713-9.278c1.624-0.683,3.308-1.272,5.042-1.788
				c1.868-0.556,3.78-1.06,5.72-1.505c2.255-0.518,4.549-0.956,6.855-1.301c2.332-0.349,4.677-0.604,7.01-0.752
				c0.076-0.005,0.152-0.01,0.228-0.014"/>
			<path fill="#FFFFFF" stroke="#FFFFFF" d="M166.246,50.733c-0.74-2.826-1.129-5.761-1.129-8.773
				c0-22.469,21.694-40.683,48.457-40.683c22.892,0,42.076,13.329,47.145,31.248"/>
		</g>
	</g>
	<line fill="#FFFFFF" stroke="#FFFFFF" x1="388.965" y1="193.414" x2="399.6" y2="203.77"/>
</g>
</svg>
