<?xml version="1.0" encoding="utf-8"?>
<!-- Generator: Adobe Illustrator 12.0.0, SVG Export Plug-In . SVG Version: 6.00 Build 51448)  -->
<!DOCTYPE svg PUBLIC "-//W3C//DTD SVG 1.1//EN" "http://www.w3.org/Graphics/SVG/1.1/DTD/svg11.dtd" [
	<!ENTITY ns_svg "http://www.w3.org/2000/svg">
	<!ENTITY ns_xlink "http://www.w3.org/1999/xlink">
]>
<svg  version="1.1" id="レイヤー_1" xmlns="&ns_svg;" xmlns:xlink="&ns_xlink;" width="513.676" height="513.674"
	 viewBox="0 0 513.676 513.674" overflow="visible" enable-background="new 0 0 513.676 513.674" xml:space="preserve">
<g>
	<g>
		<path fill="#2C3F55" d="M75.085,400.178v-56.404c0-2.354,1.189-3.588,3.461-3.588h9.516c2.271,0,3.46,1.121,3.46,3.252v6.727
			c4.542-5.941,11.788-11.213,21.52-11.213c13.409,0,22.709,10.205,22.709,27.25v33.977c0,2.355-1.189,3.59-3.461,3.59h-9.516
			c-2.163,0-3.461-1.234-3.461-3.59V368.78c0-9.309-5.299-14.465-13.084-14.465c-8.435,0-14.707,6.055-14.707,14.576v31.287
			c0,2.355-1.189,3.59-3.46,3.59h-9.516C76.274,403.768,75.085,402.534,75.085,400.178z"/>
		<path fill="#2C3F55" d="M142.187,371.92c0-18.166,13.625-32.969,32.766-32.969s32.766,14.803,32.766,32.969
			S194.093,405,174.953,405S142.187,390.086,142.187,371.92z M158.732,371.92c0,9.98,6.164,17.83,16.22,17.83
			c10.165,0,16.221-7.85,16.221-17.83c0-10.092-6.056-17.717-16.221-17.717C164.896,354.204,158.732,361.829,158.732,371.92z"/>
		<path fill="#2C3F55" d="M241.509,338.952c9.949,0,16.328,3.59,20.438,8.973V320.45c0-2.354,1.19-3.701,3.569-3.701h9.191
			c2.271,0,3.568,1.348,3.568,3.701v79.617c0,2.355-1.297,3.701-3.568,3.701h-9.191c-2.379,0-3.569-1.234-3.569-3.365v-4.486
			c-4.11,5.496-10.489,9.084-20.438,9.084c-16.004,0-27.359-13.232-27.359-33.08S225.504,338.952,241.509,338.952z M246.808,389.524
			c9.949,0,15.355-7.623,15.355-17.492c0-10.092-5.407-17.605-15.355-17.605s-16.005,7.514-16.005,17.605
			C230.803,381.901,236.859,389.524,246.808,389.524z"/>
		<path fill="#2C3F55" d="M299.147,333.569c-5.299,0-9.516-4.262-9.516-9.418c0-4.936,4.324-9.195,9.516-9.195
			c5.082,0,9.301,4.037,9.301,9.195C308.448,329.307,304.338,333.569,299.147,333.569z M290.821,400.178v-56.404
			c0-2.354,1.189-3.588,3.459-3.588h9.518c2.27,0,3.461,1.234,3.461,3.588v56.404c0,2.355-1.191,3.59-3.461,3.59h-9.518
			C292.01,403.768,290.821,402.534,290.821,400.178z"/>
		<path fill="#2C3F55" d="M348.674,338.952c12.436,0,21.844,6.279,26.604,14.689c1.188,2.02,0.322,3.701-1.73,4.711l-7.895,3.363
			c-1.84,1.01-3.137,0.563-4.109-0.672c-2.813-3.924-6.922-6.729-12.76-6.729c-9.408,0-16.113,7.625-16.113,17.828
			c0,10.205,6.705,17.494,16.113,17.494c5.947,0,10.055-2.691,12.977-6.279c1.297-1.568,2.27-1.793,4.217-0.896l7.893,3.365
			c2.057,0.895,2.813,2.689,1.623,4.82C370.735,399.17,361.543,405,348.784,405c-18.275,0-32.551-13.682-32.551-32.857
			C316.233,353.641,330.616,338.952,348.674,338.952z"/>
		<path fill="#2C3F55" d="M422.694,400.627l-0.107-4.148c-3.678,5.381-10.49,8.41-18.816,8.41c-13.518,0-23.25-6.842-23.25-19.85
			c0-13.568,12.762-20.408,25.088-20.408c5.516,0,10.924,0.785,16.545,2.467c0.217-9.645-4.865-13.793-13.732-13.793
			c-5.947,0-12.436,1.457-17.303,3.252c-2.162,0.785-3.785,0.113-4.541-2.242l-1.73-5.494c-0.648-2.131,0-3.926,2.055-4.822
			c6.596-2.805,14.814-5.047,23.898-5.047c19.248,0,27.791,9.758,27.791,29.156v31.959c0,2.355-1.297,3.701-3.568,3.701h-8.758
			C423.993,403.768,422.694,402.645,422.694,400.627z M422.153,381.452v-4.262c-3.893-1.457-8.002-2.131-12.326-2.131
			c-7.029,0-12.869,2.805-12.869,8.748c0,6.055,5.191,8.859,11.463,8.859C415.665,392.667,422.153,388.965,422.153,381.452z"/>
	</g>
	<g>
		<path fill="#2C3F55" stroke="#2C3F55" d="M222.357,118.2c14.199,16.915,68.764,88.238,80.924,104.153
			c5.982,7.83,16.51,13.923,25.416,17.886c0.74,0.33,2.902,1.526,3.719,0.711c-9.068-9.258-18.283-18.07-25.465-28.941
			c-1.23-1.865-2.689-4.08-4.131-6.406c-0.283-0.456-0.564-0.916-0.844-1.378c-2.498-4.136-4.799-8.473-5.596-11.734
			c-1.766-7.235-2.646-17.646-2.646-17.646v-66.169h49.055c0,0,0,116.961,0,138.228c0,2.126,0,3.296,0,3.296
			c-0.279,14.67-12.75,26.547-27.002,29.516c-7.127,1.781-14.848,1.188-21.275-1.557c-1.535-0.691-2.85-1.479-3.982-2.283
			s-2.08-1.627-2.877-2.391c-2.99-2.861-12.377-14.605-14.303-17.189c-2.527-3.392-5.125-6.723-7.707-10.072
			c-3-3.887-5.931-7.826-8.94-11.706c-3.228-4.163-6.387-8.376-9.599-12.551c-3.219-4.184-6.436-8.366-9.635-12.565
			c-2.96-3.886-5.964-7.737-8.922-11.625c-2.464-3.238-4.951-6.459-7.427-9.688c-1.755-2.288-3.49-4.59-5.255-6.87
			c-0.822-1.063-1.617-2.148-2.446-3.205c-0.056-0.071-0.113-0.141-0.169-0.21v98.977l-42.362-0.791c0,0,0-139.836,0-139.894
			c0-3.609,1.063-7.512,2.712-11.077c0.499-1.079,1.051-2.125,1.644-3.124c0.773-1.302,1.625-2.562,2.591-3.721
			c2.022-2.427,4.647-4.289,7.55-5.51c0.964-0.406,1.964-0.755,2.994-1.062c1.109-0.33,2.245-0.63,3.397-0.894
			c1.339-0.308,2.702-0.568,4.071-0.773c1.385-0.208,2.778-0.359,4.163-0.447c0.045-0.003,0.09-0.006,0.136-0.008"/>
		<ellipse fill="#2C3F55" stroke="#2C3F55" cx="199.827" cy="133.297" rx="28.775" ry="24.16"/>
	</g>
</g>
<circle fill="none" cx="256.838" cy="256.838" r="256.838"/>
</svg>
