<?xml version="1.0" encoding="utf-8"?>
<!-- Generator: Adobe Illustrator 12.0.0, SVG Export Plug-In . SVG Version: 6.00 Build 51448)  -->
<!DOCTYPE svg PUBLIC "-//W3C//DTD SVG 1.1//EN" "http://www.w3.org/Graphics/SVG/1.1/DTD/svg11.dtd" [
	<!ENTITY ns_svg "http://www.w3.org/2000/svg">
	<!ENTITY ns_xlink "http://www.w3.org/1999/xlink">
]>
<svg  version="1.1" id="レイヤー_1" xmlns="&ns_svg;" xmlns:xlink="&ns_xlink;" width="676.642" height="182.19"
	 viewBox="0 0 676.642 182.19" overflow="visible" enable-background="new 0 0 676.642 182.19" xml:space="preserve">
<g>
	<path fill="#2C3F55" d="M222.336,141.338V70.845c0-2.942,1.486-4.484,4.325-4.484h11.894c2.838,0,4.325,1.402,4.325,4.064v8.408
		c5.676-7.428,14.731-14.015,26.895-14.015c16.759,0,28.382,12.753,28.382,34.055v42.465c0,2.943-1.487,4.485-4.326,4.485h-11.893
		c-2.703,0-4.325-1.542-4.325-4.485v-39.24c0-11.633-6.622-18.079-16.353-18.079c-10.542,0-18.38,7.568-18.38,18.218v39.102
		c0,2.943-1.487,4.485-4.325,4.485h-11.894C223.823,145.823,222.336,144.281,222.336,141.338z"/>
	<path fill="#2C3F55" d="M306.199,106.021c0-22.703,17.03-41.204,40.952-41.204c23.921,0,40.949,18.5,40.949,41.204
		c0,22.704-17.028,41.343-40.949,41.343C323.229,147.364,306.199,128.726,306.199,106.021z M326.877,106.021
		c0,12.473,7.703,22.284,20.273,22.284c12.703,0,20.272-9.812,20.272-22.284c0-12.612-7.569-22.143-20.272-22.143
		C334.58,83.879,326.877,93.409,326.877,106.021z"/>
	<path fill="#2C3F55" d="M430.331,64.818c12.434,0,20.406,4.484,25.543,11.213V41.695c0-2.942,1.486-4.625,4.46-4.625h11.488
		c2.838,0,4.459,1.683,4.459,4.625v99.502c0,2.944-1.621,4.626-4.459,4.626h-11.488c-2.974,0-4.46-1.542-4.46-4.203v-5.607
		c-5.137,6.868-13.109,11.352-25.543,11.352c-20.003,0-34.193-16.537-34.193-41.343S410.328,64.818,430.331,64.818z
		 M436.953,128.024c12.434,0,19.191-9.53,19.191-21.862c0-12.612-6.758-22.003-19.191-22.003c-12.435,0-20.002,9.391-20.002,22.003
		C416.951,118.494,424.519,128.024,436.953,128.024z"/>
	<path fill="#2C3F55" d="M502.367,58.092c-6.623,0-11.895-5.326-11.895-11.772c0-6.167,5.406-11.493,11.895-11.493
		c6.351,0,11.623,5.046,11.623,11.493C513.99,52.766,508.854,58.092,502.367,58.092z M491.96,141.338V70.845
		c0-2.942,1.486-4.484,4.324-4.484h11.895c2.836,0,4.323,1.542,4.323,4.484v70.493c0,2.943-1.487,4.485-4.323,4.485h-11.895
		C493.446,145.823,491.96,144.281,491.96,141.338z"/>
	<path fill="#2C3F55" d="M564.266,64.818c15.54,0,27.3,7.848,33.246,18.36c1.486,2.523,0.404,4.626-2.163,5.887l-9.865,4.203
		c-2.298,1.262-3.92,0.702-5.137-0.84c-3.514-4.904-8.649-8.409-15.946-8.409c-11.759,0-20.139,9.531-20.139,22.282
		c0,12.754,8.38,21.864,20.139,21.864c7.433,0,12.567-3.364,16.218-7.849c1.621-1.962,2.838-2.242,5.271-1.121l9.865,4.206
		c2.567,1.119,3.514,3.361,2.026,6.025c-5.946,10.65-17.435,17.938-33.381,17.938c-22.841,0-40.681-17.098-40.681-41.063
		C523.72,83.178,541.694,64.818,564.266,64.818z"/>
	<path fill="#2C3F55" d="M656.773,141.899l-0.135-5.186c-4.596,6.727-13.109,10.511-23.516,10.511
		c-16.895,0-29.058-8.549-29.058-24.807c0-16.958,15.947-25.506,31.355-25.506c6.893,0,13.648,0.981,20.677,3.083
		c0.271-12.053-6.081-17.238-17.163-17.238c-7.434,0-15.543,1.822-21.624,4.065c-2.704,0.981-4.731,0.141-5.677-2.804l-2.163-6.868
		c-0.81-2.663,0-4.905,2.569-6.026c8.243-3.503,18.515-6.307,29.867-6.307c24.057,0,34.734,12.194,34.734,36.439v39.94
		c0,2.944-1.622,4.626-4.461,4.626h-10.946C658.396,145.823,656.773,144.422,656.773,141.899z M656.098,117.933v-5.324
		c-4.865-1.822-10.001-2.663-15.406-2.663c-8.784,0-16.083,3.503-16.083,10.932c0,7.568,6.486,11.073,14.326,11.073
		C647.988,131.95,656.098,127.324,656.098,117.933z"/>
</g>
<g>
	<g>
		<path fill="#2C3F55" stroke="#2C3F55" d="M54.706,10.53c13.235,15.768,59.779,76.429,79.174,101.776
			c1.38,1.803,2.622,3.428,3.705,4.845c0.893,1.167,1.677,2.192,2.341,3.063c1.292,1.69,2.787,3.307,4.425,4.84
			c1.701,1.592,3.559,3.098,5.511,4.512c1.277,0.926,2.594,1.813,3.935,2.66c4.258,2.69,8.745,4.978,12.896,6.825
			c0.779,0.347,3.057,1.607,3.915,0.748c-9.549-9.749-19.253-19.029-26.814-30.479c-1.296-1.963-2.833-4.296-4.352-6.746
			c-0.297-0.479-0.594-0.965-0.889-1.451c-2.63-4.355-5.053-8.922-5.891-12.358c-1.859-7.619-2.787-18.583-2.787-18.583V0.5h51.659
			c0,0,0,123.172,0,145.567c0,2.239,0,3.471,0,3.471c-0.294,15.45-13.427,27.958-28.437,31.085
			c-7.504,1.876-15.635,1.25-22.404-1.641c-1.618-0.728-3.003-1.557-4.195-2.403c-1.192-0.848-2.19-1.713-3.029-2.518
			c-3.149-3.013-13.034-15.381-15.063-18.103c-2.662-3.572-5.396-7.08-8.116-10.606c-3.159-4.094-6.246-8.242-9.415-12.328
			c-3.4-4.383-6.728-8.821-10.109-13.217c-3.39-4.407-6.778-8.812-10.147-13.233c-3.118-4.092-6.282-8.147-9.396-12.241
			c-2.595-3.411-5.215-6.802-7.822-10.203c-1.848-2.409-3.675-4.834-5.534-7.235c-0.866-1.118-1.702-2.262-2.576-3.375
			c-0.059-0.075-0.119-0.148-0.179-0.221V177.53L0.5,176.697c0,0,0-147.261,0-147.322c0-3.802,1.12-7.912,2.857-11.666
			c0.525-1.135,1.107-2.238,1.731-3.29c0.814-1.371,1.711-2.698,2.729-3.918c2.129-2.556,4.894-4.517,7.95-5.803
			c1.016-0.427,2.069-0.796,3.153-1.118c1.168-0.348,2.364-0.664,3.577-0.942c1.41-0.324,2.845-0.598,4.287-0.814
			c1.458-0.218,2.925-0.377,4.384-0.47c0.047-0.003,0.095-0.006,0.143-0.009"/>
		<path fill="#2C3F55" stroke="#2C3F55" d="M1.381,31.916c-0.462-1.768-0.707-3.603-0.707-5.487
			c0-14.052,13.568-25.443,30.305-25.443c14.316,0,26.314,8.336,29.483,19.542"/>
	</g>
	<line fill="#2C3F55" stroke="#2C3F55" x1="140.669" y1="121.147" x2="147.32" y2="127.624"/>
</g>
</svg>
